<!-- Generator: Adobe Illustrator 21.0.2, SVG Export Plug-In  -->
<svg version="1.1" xmlns="http://www.w3.org/2000/svg" xmlns:xlink="http://www.w3.org/1999/xlink" xmlns:a="http://ns.adobe.com/AdobeSVGViewerExtensions/3.0/" x="0px" y="0px" width="482.078px" height="110.73px" viewBox="0 0 482.078 110.73" style="enable-background:new 0 0 482.078 110.73;" xml:space="preserve">
<style type="text/css">
	.st0{fill:#1780A7;}
	.st1{fill:url(#SVGID_1_);}
	.st2{fill:#04A9DE;}
	.st3{fill:#015B78;}
	.st4{fill:url(#SVGID_2_);}
</style>
<defs>
</defs>
<g>
	<g>
		<path class="st0" d="M457.991,19.995c-12.77,0-22.46,4.642-28.558,13.734l4.587-10.109c0.117-0.35,0.234-0.702,0.234-1.053    c0-0.934-0.702-1.637-1.637-1.637h-16.019c-1.169,0-2.339,1.053-2.923,2.456l-18.124,45.835c-0.701,1.755-1.403,2.455-2.222,2.455    c-0.818,0-1.286-0.7-1.403-2.455l-1.988-45.835c-0.117-1.403-0.818-2.456-1.988-2.456h-14.85c-1.169,0-2.222,1.053-2.222,2.456    c0,0,0,0.117,0,0.233l0.971,9.794c-3.396-8.245-11.223-13.248-22.749-13.248c-9.133,0-16.431,2.076-22.037,6.446l0,0    c-6.308,4.918-10.468,12.75-12.573,23.955l-1.52,8.185c-0.468,2.222-0.585,4.443-0.585,6.548c0,7.001,2.238,13.03,6.51,17.28    c4.148,4.125,10.212,6.574,18.045,6.574c20.696,0,30.869-10.523,34.61-30.401l1.52-8.185c0.079-0.472,0.184-1.151,0.289-1.918    l2.781,28.054c1.052,10.407,7.717,12.278,14.616,12.278c6.898,0,14.499-1.871,19.176-12.278l14.491-31.936    c-0.55,1.894-1.03,3.87-1.394,5.978l-1.403,8.185c-0.351,2.338-0.585,4.561-0.585,6.548c0,16.253,11.927,23.503,24.555,23.503    c10.173,0,16.721-0.936,24.555-2.807c2.104-0.468,2.572-1.287,2.923-3.157l1.637-8.887c0-0.117,0-0.235,0-0.351    c0-1.052-0.818-1.52-1.871-1.52c-0.117,0-0.234,0-0.351,0c-4.794,0.468-15.318,1.052-22.684,1.052    c-7.483,0-10.407-2.104-10.407-8.184c0-1.403,0.234-3.04,0.468-4.795h37.534c1.52,0,2.573-1.052,2.923-2.805l1.169-6.783    c0.351-2.104,0.584-4.327,0.584-6.314C482.078,30.753,473.776,19.995,457.991,19.995z M354.246,50.569l-1.52,8.185    c-1.754,9.471-5.262,14.382-12.862,14.382c-5.846,0-8.653-2.69-8.653-8.77c0-1.637,0.234-3.508,0.585-5.613l1.52-8.185    c1.871-10.29,6.197-14.265,12.979-14.265c5.729,0,8.535,2.806,8.535,8.886C354.831,46.709,354.597,48.58,354.246,50.569z     M463.838,48.643h-21.983c1.754-8.07,5.496-13.447,13.447-13.447c6.548,0,9.12,2.923,9.12,8.3    C464.422,45.017,464.189,46.772,463.838,48.643z"/>
	</g>
	<linearGradient id="SVGID_1_" gradientUnits="userSpaceOnUse" x1="310.8875" y1="42.5041" x2="335.0548" y2="66.6714">
		<stop offset="0.2985" style="stop-color:#03A7E0"/>
		<stop offset="0.7414" style="stop-color:#087FAA"/>
	</linearGradient>
	<path class="st1" d="M331.275,58.754l1.52-8.185c0.234-1.403,0.702-4.56,0.702-6.782c0-7.141-2.228-13.051-6.432-17.174   c-6.308,4.918-10.468,12.75-12.573,23.955l-1.52,8.185c-0.468,2.222-0.585,4.443-0.585,6.548c0,7.001,2.237,13.03,6.51,17.28   C325.326,77.487,329.252,69.501,331.275,58.754z"/>
	<path class="st2" d="M314.491,50.569c2.105-11.206,6.265-19.037,12.573-23.955c-4.194-4.113-10.356-6.446-18.239-6.446   c-16.892,0-27.578,7.005-32.689,22.77c0.183-1.497,0.285-3.004,0.285-4.467c0-9.94-4.327-18.475-17.306-18.475   c-7.951,0-13.798,1.287-20.696,5.262c-2.572-3.157-6.782-5.262-13.563-5.262c-6.431,0-11.81,2.923-16.487,5.963l0.468-2.689   c0-0.117,0-0.233,0-0.351c0-1.169-0.818-1.988-1.988-1.988h-12.745c-1.287,0-2.456,1.053-2.69,2.34l-2.568,14.532   c-2.185-10.861-10.689-17.807-24.093-17.807c-9.003,0-18.358,1.403-25.373,3.041c-3.274,0.7-3.858,1.52-4.209,3.39l-1.999,11.303   c-2.208-10.819-10.703-17.734-24.077-17.734c-9.003,0-18.358,1.403-25.373,3.041c-3.274,0.7-3.858,1.52-4.209,3.39l-6.991,39.521   L69.104,12.98C68.403,1.755,60.218,0,52.149,0c-8.068,0-17.071,1.755-21.748,12.98L0.234,85.474C0.117,85.825,0,86.177,0,86.527   c0,0.818,0.584,1.403,1.637,1.403h16.721c1.169,0,2.222-0.935,2.689-2.105l7.6-19.175h23.971l0.818,19.175   c0,1.17,0.818,2.105,1.988,2.105h13.209l-3.62,20.463c0,0.117,0,0.233,0,0.35c0,1.17,0.936,1.987,2.105,1.987h14.148   c1.287,0,2.456-1.052,2.69-2.337l3.624-20.23c3.625,0.468,7.133,0.82,10.407,0.82c12.866,0,22.848-4.294,28.757-14.912   l-6.071,34.322c0,0.117,0,0.233,0,0.35c0,1.17,0.936,1.987,2.105,1.987h14.148c1.286,0,2.455-1.052,2.689-2.337l3.624-20.23   c3.625,0.468,7.133,0.82,10.407,0.82c12.906,0,22.909-4.323,28.811-15.013l-2.033,11.503c0,0.118,0,0.235,0,0.351   c0,1.17,0.818,2.105,1.988,2.105h14.148c1.287,0,2.572-1.17,2.807-2.456l8.068-46.069c3.742-1.871,7.717-3.508,10.641-3.508   c3.742,0,4.677,1.52,4.677,4.21c0,1.52-0.351,3.39-0.702,5.496l-7.016,39.871c0,0.118,0,0.235,0,0.351   c0,1.17,0.819,2.105,1.988,2.105h14.148c1.286,0,2.572-1.17,2.806-2.456l7.016-39.871c0.468-2.573,0.818-5.263,0.818-7.835   c3.625-1.52,7.6-1.871,9.471-1.871c4.677,0,6.081,1.403,6.081,4.677c0,1.403-0.234,3.041-0.585,5.03l-7.016,39.871   c0,0.118,0,0.351,0,0.469c0,1.052,0.702,1.987,1.871,1.987h14.148c1.287,0,2.689-1.17,2.923-2.456l3.432-19.504   c0.279,13.449,8.887,23.185,24.528,23.185c9.506,0,16.769-2.247,22.231-6.574c-4.272-4.249-6.51-10.278-6.51-17.28   c0-2.105,0.117-4.326,0.585-6.548L314.491,50.569z M34.728,50.63l12.862-32.272c0.468-1.169,0.936-1.755,1.988-1.755   c1.052,0,1.169,0.586,1.169,1.755l1.403,32.272H34.728z M114.24,49.928l-1.52,9.121c-1.988,11.575-6.314,14.381-13.681,14.381   c-2.572,0-5.496-0.233-8.769-0.7l6.431-36.482c2.338-0.351,5.846-0.585,9.705-0.585c6.314,0,8.418,2.807,8.418,8.185   C114.824,45.603,114.591,47.59,114.24,49.928z M169.899,49.928l-1.52,9.121c-1.988,11.575-6.314,14.381-13.681,14.381   c-2.572,0-5.496-0.233-8.769-0.7l6.431-36.482c2.338-0.351,5.846-0.585,9.705-0.585c6.314,0,8.418,2.807,8.418,8.185   C170.483,45.603,170.25,47.59,169.899,49.928z M299.587,73.136c-5.846,0-8.653-2.69-8.653-8.77c0-1.637,0.234-3.508,0.585-5.613   l1.52-8.185c1.871-10.29,6.197-14.265,12.979-14.265c5.729,0,8.535,2.806,8.535,8.886c0,1.52-0.233,3.391-0.584,5.379l-1.52,8.185   C310.695,68.224,307.188,73.136,299.587,73.136z"/>
	<path class="st3" d="M312.386,69.779c0,5.554,1.117,10.656,3.244,15.016c1.151-0.663,2.243-1.404,3.265-2.213   c-3.911-3.89-6.094-9.282-6.439-15.535C312.413,67.968,312.386,68.884,312.386,69.779z"/>
</g>
</svg>